# xmcd
#
# Track frame offsets: 
#        150
#        30076
#        52973
#        67631
#        96997
#        116279
#        139889
#        161476
#        180211
#        205641
#        241733
#        284129
#
# Disc length: 3973 seconds
#
# Revision: 1
# Processed by: cddbd v1.5.2PL0 Copyright (c) Steve Scherf et al.
# Submitted via: ExactAudioCopy v0.99pb4
#
DISCID=910f830c
DTITLE=Underworld Vs The Misterons - Athens
DYEAR=2009
DGENRE=Jazz
TTITLE0=Journey In Satchidananda feat. Pharoah Sanders - Alice Coltran
TTITLE0=e
TTITLE1=You Know, You Know - Mahavishnu Orchestra
TTITLE2=Theme From Sprite - Squarepusher
TTITLE3=Penny Hitch - Soft Cell
TTITLE4=2HB - Roxy Music
TTITLE5=Space Odyssey - Detroit Experiment
TTITLE6=Rectify - Moodymann
TTITLE7=The Promise - Osunlade
TTITLE8=Oh - Underworld
TTITLE9=Gnaumankoudji (Broken Afro Mix) - Laurent Garnier
TTITLE10=New York City - Miroslav Vitous
TTITLE11=Beebop Hurry - Brian Eno and Karl Hyde
EXTD=YEAR: 2009
EXTT0=
EXTT1=
EXTT2=
EXTT3=
EXTT4=
EXTT5=
EXTT6=
EXTT7=
EXTT8=
EXTT9=
EXTT10=
EXTT11=
PLAYORDER=
